<svg width="523" height="92" viewBox="0 0 523 92" fill="none" xmlns="http://www.w3.org/2000/svg">
<path d="M5.344 22.264C8.928 15.352 13.92 10.104 20.576 6.26399C27.232 2.55199 35.04 0.631996 44 0.631996C50.912 0.631996 57.184 2.03999 62.816 4.728C68.32 7.544 72.8 11.384 76.256 16.248C79.584 21.24 81.632 27 82.4 33.4H63.2C62.048 28.28 59.744 24.312 56.16 21.368C52.576 18.424 48.224 16.888 42.976 16.888C35.808 16.888 30.048 19.576 25.952 24.952C21.728 30.328 19.68 37.496 19.68 46.2C19.68 54.904 21.728 62.072 25.952 67.448C30.048 72.824 35.808 75.512 42.976 75.512C48.224 75.512 52.576 74.104 56.16 71.16C59.744 68.216 62.048 64.12 63.2 59H82.4C81.632 65.528 79.584 71.288 76.256 76.152C72.8 81.144 68.32 84.984 62.816 87.672C57.184 90.488 50.912 91.768 44 91.768C35.04 91.768 27.232 89.976 20.576 86.136C13.92 82.424 8.928 77.176 5.344 70.264C1.76 63.352 0.0960002 55.416 0.0960002 46.2C0.0960002 37.112 1.76 29.176 5.344 22.264ZM132.211 25.208V41.592H125.043C119.923 41.592 116.083 43.128 113.779 46.2C111.347 49.272 110.195 53.496 110.195 58.744V91H92.147V25.208H108.531L110.195 35.064C112.115 31.864 114.547 29.432 117.491 27.768C120.307 26.104 124.275 25.208 129.139 25.208H132.211ZM139.683 40.44C142.499 35.32 146.339 31.48 151.331 28.664C156.323 25.848 162.083 24.44 168.739 24.44C175.395 24.44 181.155 25.848 186.275 28.408C191.395 30.968 195.363 34.68 198.179 39.416C200.995 44.152 202.531 49.656 202.659 56.056C202.659 58.36 202.403 60.408 202.147 62.2H154.403V62.712C154.787 67.576 156.323 71.288 159.011 73.976C161.571 76.792 165.283 78.072 169.891 78.072C173.475 78.072 176.547 77.304 178.979 75.768C181.411 74.232 183.075 71.8 183.843 68.728H201.635C200.867 73.08 199.203 77.048 196.643 80.504C193.955 84.088 190.499 86.776 186.147 88.824C181.795 90.872 176.803 91.768 171.171 91.768C163.747 91.768 157.475 90.488 152.099 87.672C146.723 84.984 142.627 81.144 139.811 76.024C136.995 70.904 135.587 65.016 135.587 58.232C135.587 51.448 136.867 45.56 139.683 40.44ZM184.611 50.424C183.971 46.456 182.307 43.384 179.619 41.208C176.931 39.032 173.603 37.88 169.507 37.88C165.539 37.88 162.211 39.032 159.523 41.336C156.835 43.64 155.299 46.584 154.787 50.424H184.611ZM277.29 75.768V91H268.074C259.754 91 255.658 87.416 255.914 80.248C253.482 84.088 250.538 86.904 247.082 88.824C243.498 90.872 239.274 91.768 234.41 91.768C226.986 91.768 221.098 90.104 216.618 86.776C212.138 83.448 209.962 78.584 209.962 72.44C209.962 65.528 212.522 60.152 217.642 56.312C222.762 52.472 230.314 50.552 240.17 50.552H253.226V47.352C253.226 44.408 252.074 42.104 249.898 40.312C247.594 38.52 244.65 37.624 240.938 37.624C237.61 37.624 234.794 38.392 232.746 39.8C230.57 41.336 229.29 43.256 228.906 45.688H211.498C212.01 39.032 215.082 33.784 220.458 30.072C225.834 26.36 232.874 24.44 241.834 24.44C251.05 24.44 258.218 26.488 263.338 30.584C268.458 34.68 271.018 40.696 271.018 48.376V71.544C271.018 73.208 271.274 74.36 272.042 74.872C272.682 75.512 273.706 75.768 275.242 75.768H277.29ZM253.226 62.584H240.042C236.202 62.584 233.258 63.352 231.21 64.888C229.162 66.424 228.138 68.472 228.138 71.16C228.138 73.464 228.906 75.384 230.698 76.664C232.49 78.072 234.794 78.712 237.866 78.712C242.474 78.712 246.186 77.432 249.002 74.744C251.69 72.056 253.098 68.472 253.226 63.864V62.584ZM288.496 40.44H277.616V25.208H288.496V6.77599H306.544V25.208H321.52V40.44H306.544V69.24C306.544 71.544 306.928 73.208 307.952 74.232C308.976 75.256 310.64 75.768 312.944 75.768H322.288V91H307.312C294.768 91 288.496 84.728 288.496 72.184V40.44ZM342.721 87.672C337.473 84.856 333.377 80.888 330.561 75.768C327.745 70.648 326.337 64.76 326.337 58.104C326.337 51.448 327.745 45.56 330.561 40.44C333.377 35.32 337.473 31.48 342.721 28.664C347.969 25.848 354.113 24.44 361.025 24.44C367.937 24.44 373.953 25.848 379.201 28.664C384.449 31.48 388.545 35.32 391.361 40.44C394.177 45.56 395.713 51.448 395.713 58.104C395.713 64.888 394.177 70.776 391.361 75.896C388.545 81.016 384.449 84.856 379.201 87.672C373.953 90.488 367.937 91.768 361.025 91.768C354.113 91.768 347.969 90.488 342.721 87.672ZM372.929 71.8C375.873 68.344 377.409 63.736 377.409 58.104C377.409 52.472 375.873 47.992 372.929 44.408C369.985 40.952 366.017 39.16 361.025 39.16C356.033 39.16 352.065 40.952 349.121 44.408C346.177 47.992 344.769 52.472 344.769 58.104C344.769 63.736 346.177 68.344 349.121 71.8C352.065 75.384 356.033 77.048 361.025 77.048C366.017 77.048 369.985 75.384 372.929 71.8ZM419.471 87.672C414.223 84.856 410.127 80.888 407.311 75.768C404.495 70.648 403.087 64.76 403.087 58.104C403.087 51.448 404.495 45.56 407.311 40.44C410.127 35.32 414.223 31.48 419.471 28.664C424.719 25.848 430.863 24.44 437.775 24.44C444.687 24.44 450.703 25.848 455.951 28.664C461.199 31.48 465.295 35.32 468.111 40.44C470.927 45.56 472.463 51.448 472.463 58.104C472.463 64.888 470.927 70.776 468.111 75.896C465.295 81.016 461.199 84.856 455.951 87.672C450.703 90.488 444.687 91.768 437.775 91.768C430.863 91.768 424.719 90.488 419.471 87.672ZM449.679 71.8C452.623 68.344 454.159 63.736 454.159 58.104C454.159 52.472 452.623 47.992 449.679 44.408C446.735 40.952 442.767 39.16 437.775 39.16C432.783 39.16 428.815 40.952 425.871 44.408C422.927 47.992 421.519 52.472 421.519 58.104C421.519 63.736 422.927 68.344 425.871 71.8C428.815 75.384 432.783 77.048 437.775 77.048C442.767 77.048 446.735 75.384 449.679 71.8ZM522.461 25.208V41.592H515.293C510.173 41.592 506.333 43.128 504.029 46.2C501.597 49.272 500.445 53.496 500.445 58.744V91H482.397V25.208H498.781L500.445 35.064C502.365 31.864 504.797 29.432 507.741 27.768C510.557 26.104 514.525 25.208 519.389 25.208H522.461Z" fill="#6981FD"/>
</svg>
